<?xml version="1.0" encoding="utf-8"?>
<!-- Generator: Adobe Illustrator 19.2.1, SVG Export Plug-In . SVG Version: 6.00 Build 0)  -->
<svg version="1.1" id="Layer_1" xmlns="http://www.w3.org/2000/svg" xmlns:xlink="http://www.w3.org/1999/xlink" x="0px" y="0px"
	 viewBox="0 0 412 394" style="enable-background:new 0 0 412 394;" xml:space="preserve">
<style type="text/css">
	.st0{fill:#F1641E;}
</style>
<path class="st0" d="M325.5,268h-23.7c-26.2,0-47.5-21.2-47.5-47.5v-15.2c10.5-12.5,18-27.2,22.7-42.8c0.5-2.6,3-3.9,4.7-5.7
	c9.1-9.1,10.9-24.4,4.1-35.3c-0.9-1.7-2.6-3.1-2.5-5.1c0-13.9,0.1-27.9,0-41.8c-0.4-16.8-5.2-34.2-16.9-46.7
	c-9.5-10-22.5-16-36-18.6c-17-3.2-34.8-3.1-51.6,1.2c-14.6,3.7-28.3,12.2-36.8,24.9c-7.5,11-10.8,24.4-11.4,37.6
	c-0.2,14.2,0,28.3-0.1,42.5c0.3,2.8-2.1,4.8-3.2,7.1c-6.4,11.6-3.6,27.5,6.7,36c2.6,1.8,3.1,5.1,4.1,7.9c4.5,14,12,27,21.4,38.3
	v15.8c0,26.2-21.2,47.5-47.5,47.5H88.3c0,0-43,11.9-71.2,71.2v23.7c0,13.1,10.6,23.7,23.7,23.7H373c13.1,0,23.7-10.6,23.7-23.7
	v-23.7C368.5,279.9,325.5,268,325.5,268L325.5,268z M325.5,268"/>
</svg>
