<svg xmlns="http://www.w3.org/2000/svg" width="24" height="24" viewBox="0 0 24 24">
    <g fill="none" fill-rule="evenodd">
        <path fill="#7F7F7F" d="M11.1 17.4h1.8v-1.8h-1.8v1.8zM12 3c-4.968 0-9 4.032-9 9s4.032 9 9 9 9-4.032 9-9-4.032-9-9-9zm0 16.2c-3.969 0-7.2-3.231-7.2-7.2 0-3.969 3.231-7.2 7.2-7.2 3.969 0 7.2 3.231 7.2 7.2 0 3.969-3.231 7.2-7.2 7.2zm0-12.6a3.599 3.599 0 0 0-3.6 3.6h1.8c0-.99.81-1.8 1.8-1.8s1.8.81 1.8 1.8c0 1.8-2.7 1.575-2.7 4.5h1.8c0-2.025 2.7-2.25 2.7-4.5 0-1.989-1.611-3.6-3.6-3.6z"/>
    </g>
</svg>
