<?xml version="1.0" encoding="utf-8"?>
<!-- Generator: Adobe Illustrator 19.2.1, SVG Export Plug-In . SVG Version: 6.00 Build 0)  -->
<svg version="1.1" id="Layer_1" xmlns="http://www.w3.org/2000/svg" xmlns:xlink="http://www.w3.org/1999/xlink" x="0px" y="0px"
	 viewBox="0 0 412 394" style="enable-background:new 0 0 412 394;" xml:space="preserve">
<style type="text/css">
	.st0{fill:#F1641E;}
</style>
<path class="st0" d="M69.1,215h209.1c10,0,18-8.1,18-18c0-10-8.1-18-18-18H69.1l23.3-23.3c7-7,7-18.5,0-25.5c-7-7-18.5-7-25.5,0
	l-54.1,54.1c-0.4,0.4-0.8,0.9-1.2,1.3c-0.1,0.1-0.2,0.2-0.3,0.3c-0.3,0.3-0.5,0.7-0.8,1.1c-0.1,0.1-0.1,0.2-0.2,0.3
	c-0.3,0.4-0.5,0.8-0.7,1.2c0,0.1-0.1,0.2-0.1,0.2c-0.2,0.4-0.4,0.9-0.6,1.4c0,0.1,0,0.1-0.1,0.2c-0.2,0.5-0.4,1-0.5,1.5
	c0,0.1,0,0.1-0.1,0.2c-0.1,0.5-0.3,1-0.4,1.5c0,0.2,0,0.3-0.1,0.5c-0.1,0.4-0.1,0.9-0.2,1.3c-0.1,0.6-0.1,1.2-0.1,1.8
	c0,0.6,0,1.2,0.1,1.8c0,0.4,0.1,0.9,0.2,1.3c0,0.2,0,0.3,0.1,0.5c0.1,0.5,0.2,1,0.4,1.5c0,0.1,0,0.1,0,0.2c0.2,0.5,0.3,1,0.5,1.5
	c0,0.1,0,0.1,0.1,0.2c0.2,0.5,0.4,0.9,0.6,1.4c0,0.1,0.1,0.2,0.1,0.2c0.2,0.4,0.5,0.8,0.7,1.2c0.1,0.1,0.1,0.2,0.2,0.3
	c0.2,0.4,0.5,0.7,0.8,1.1c0.1,0.1,0.2,0.2,0.3,0.3c0.4,0.5,0.8,0.9,1.2,1.3l54.1,54.1c3.5,3.5,8.1,5.3,12.8,5.3
	c4.6,0,9.2-1.8,12.8-5.3c7-7,7-18.5,0-25.5L69.1,215z M69.1,215"/>
<path class="st0" d="M256.9,49.4c-49.3,0-95.1,24.4-122.6,65.4c-5.6,8.3-3.4,19.5,4.9,25c8.3,5.6,19.5,3.4,25-4.9
	c20.8-30.9,55.4-49.4,92.6-49.4c61.5,0,111.5,50,111.5,111.5c0,61.5-50,111.5-111.5,111.5c-37.1,0-71.7-18.4-92.5-49.2
	c-5.6-8.3-16.8-10.4-25.1-4.9c-8.3,5.6-10.4,16.8-4.9,25.1c27.5,40.7,73.3,65.1,122.4,65.1c81.4,0,147.6-66.2,147.6-147.6
	C404.5,115.6,338.3,49.4,256.9,49.4L256.9,49.4z M256.9,49.4"/>
</svg>
