<?xml version="1.0" encoding="utf-8"?>
<!-- Generator: Adobe Illustrator 15.0.0, SVG Export Plug-In . SVG Version: 6.00 Build 0)  -->
<!DOCTYPE svg PUBLIC "-//W3C//DTD SVG 1.1//EN" "http://www.w3.org/Graphics/SVG/1.1/DTD/svg11.dtd">
<svg version="1.1" id="Слой_1" xmlns="http://www.w3.org/2000/svg" xmlns:xlink="http://www.w3.org/1999/xlink" x="0px" y="0px"
	 width="387px" height="394px" viewBox="0 0 387 394" enable-background="new 0 0 387 394" xml:space="preserve">
<path fill="#3c515f" d="M166.758,333.512C74.398,333.512,0,259.114,0,166.758
		C0,74.399,74.398,0,166.758,0c92.355,0,166.754,74.399,166.754,166.758C333.512,259.114,259.113,333.512,166.758,333.512
		 M166.758,25.657c-77.82,0-141.102,63.281-141.102,141.101c0,77.817,63.282,141.102,141.102,141.102
		c77.816,0,141.098-63.285,141.098-141.102C307.855,88.938,244.574,25.657,166.758,25.657"/>
            <path  fill="#3c515f" d="M374.559,393.375c-3.418,0-6.84-0.854-9.406-3.421L263.391,288.188
		c-5.133-5.129-5.133-12.824,0-17.957c5.129-5.133,12.824-5.133,17.957,0l101.762,101.765c5.133,5.129,5.133,12.825,0,17.958
		C381.402,392.521,377.98,393.375,374.559,393.375"/>
</svg>
