<?xml version="1.0" encoding="utf-8"?>
<!-- Generator: Adobe Illustrator 19.2.1, SVG Export Plug-In . SVG Version: 6.00 Build 0)  -->
<svg version="1.1" id="Layer_1" xmlns="http://www.w3.org/2000/svg" xmlns:xlink="http://www.w3.org/1999/xlink" x="0px" y="0px"
	 viewBox="0 0 412 394" style="enable-background:new 0 0 412 394;" xml:space="preserve">
<style type="text/css">
	.st0{fill:#F1641E;}
</style>
<path class="st0" d="M274.9,32.2c1.1-0.8,2.2-1,2.9-1c0.8,0,2.6,0.2,4,2l37,50.4h32.1L302.7,18c-9.7-13.2-29.9-16.3-43.1-6.6
	l-17.4,12.8L257.5,45L274.9,32.2z M274.9,32.2"/>
<path class="st0" d="M185.8,32.3c1.1-0.8,2.2-1,2.9-1c0.8,0,2.6,0.2,4,2l37,50.4h32.1L213.5,18c-9.7-13.2-29.8-16.3-43.1-6.6
	L71.7,83.7h43.8L185.8,32.3z M185.8,32.3"/>
<path class="st0" d="M224.1,249.3c0-31.7,25.8-57.5,57.5-57.5H379v-58.4c0-13.1-10.6-23.7-23.7-23.7H38.7
	c-13.1,0-23.7,10.6-23.7,23.7v232c0,13.1,10.6,23.7,23.7,23.7h316.6c13.1,0,23.7-10.6,23.7-23.7v-58.4h-97.4
	C250,306.9,224.1,281.1,224.1,249.3L224.1,249.3z M224.1,249.3"/>
<path class="st0" d="M391.9,211.2H281.7c-21,0-38.1,17.1-38.1,38.1c0,21,17.1,38.1,38.1,38.1h110.2c6.9,0,12.6-5.6,12.6-12.6v-51
	C404.4,216.9,398.8,211.2,391.9,211.2L391.9,211.2z M391.9,211.2"/>
</svg>
