<svg width="27" height="25" version="1.1" id="Layer_1" xmlns="http://www.w3.org/2000/svg" xmlns:xlink="http://www.w3.org/1999/xlink" x="0px" y="0px" viewBox="0 0 330 330" style="enable-background:new 0 0 330 330;" xml:space="preserve">
              <g id="XMLID_810_">
                  <path id="XMLID_811_" d="M250,137.621V84.999C250,38.131,211.869,0,165,0c-46.869,0-84.999,38.131-84.999,84.999v52.62
                      C61.373,158.064,50,185.229,50,215c0,63.411,51.589,115,115,115s115-51.589,115-115C280,185.229,268.627,158.064,250,137.621z
                       M165,30c30.327,0,55,24.673,55,54.999v29.029C203.652,105.088,184.91,100,165,100c-19.909,0-38.651,5.088-54.999,14.028V84.999
                      C110.001,54.673,134.673,30,165,30z M165,300c-46.869,0-85-38.131-85-85s38.131-85,85-85s85,38.131,85,85S211.869,300,165,300z"></path>
                <path id="XMLID_815_" d="M165,175c-13.785,0-25,11.215-25,25c0,8.162,3.932,15.421,10,19.986V240c0,8.284,6.716,15,15,15
                      s15-6.716,15-15v-20.014c6.068-4.565,10-11.825,10-19.986C190,186.215,178.785,175,165,175z"></path>
              </g>
              </svg>