<svg xmlns="http://www.w3.org/2000/svg" width="119" height="119" viewBox="0 0 119 119">
    <g fill="none" fill-rule="evenodd">
        <path fill="#FFF" d="M-121-173h360v640h-360z"/>
        <g transform="translate(18 18)">
            <circle cx="42.376" cy="42.376" r="42.376" fill-rule="nonzero"/>
            <path fill="#7F7F7F" fill-rule="nonzero" d="M42.376 5.845c20.143 0 36.53 16.388 36.53 36.53 0 20.144-16.387 36.531-36.53 36.531S5.845 62.52 5.845 42.376 22.233 5.845 42.375 5.845zm0-5.845C18.973 0 0 18.973 0 42.376S18.973 84.75 42.376 84.75 84.75 65.78 84.75 42.376 65.78 0 42.376 0z"/>
            <path fill="#8697CB" fill-rule="nonzero" d="M65.106 62.887c-.57-.6-1.494-.6-2.066 0-.571.6-.571 1.57 0 2.17l1.033 1.084c.285.3.66.45 1.033.45.375 0 .749-.15 1.034-.45.57-.6.57-1.57 0-2.17l-1.034-1.084z"/>
            <path fill="#7F7F7F" fill-rule="nonzero" d="M37.853 43.66h-12.8c-.883 0-1.6-.653-1.6-1.461s.717-1.461 1.6-1.461h12.8c.883 0 1.6.653 1.6 1.46 0 .809-.717 1.462-1.6 1.462zM42.376 39.276c-.807 0-1.462-.79-1.462-1.769V18.046c0-.979.655-1.77 1.462-1.77.806 0 1.46.791 1.46 1.77v19.461c0 .978-.654 1.77-1.46 1.77z"/>
            <path fill="#7F7F7F" fill-rule="nonzero" d="M42.25 48.094a5.85 5.85 0 0 1-5.846-5.845 5.85 5.85 0 0 1 5.845-5.845 5.85 5.85 0 0 1 5.845 5.845 5.85 5.85 0 0 1-5.845 5.845zm0-8.767a2.925 2.925 0 0 0-2.923 2.922 2.925 2.925 0 0 0 2.922 2.923 2.925 2.925 0 0 0 2.923-2.923 2.925 2.925 0 0 0-2.923-2.922z"/>
            <g transform="translate(52.815 53.727)">
                <circle cx="18.105" cy="17.535" r="17.535" fill="#57A200" fill-rule="nonzero"/>
                <path fill="#FFF" d="M15.367 25.983c-.34 0-.679-.127-.938-.38l-5.88-5.739a1.277 1.277 0 0 1-.002-1.834 1.35 1.35 0 0 1 1.877-.001l4.943 4.823 11.763-11.48a1.348 1.348 0 0 1 1.877.001 1.277 1.277 0 0 1-.002 1.835l-12.7 12.395c-.26.253-.6.38-.938.38"/>
            </g>
        </g>
    </g>
</svg>
